<svg width="306px" height="51px" viewBox="0 0 306 51" version="1.1" xmlns="http://www.w3.org/2000/svg" xmlns:xlink="http://www.w3.org/1999/xlink">
    <defs>
        <filter id="filter-1">
            <feColorMatrix in="SourceGraphic" type="matrix" values="0 0 0 0 0.064272 0 0 0 0 0.678304 0 0 0 0 0.650593 0 0 0 1.000000 0"></feColorMatrix>
        </filter>
        <path d="M33.6,50.64 C35.36,50.64 36.9466667,50.1466667 38.36,49.16 C39.7733333,48.1733333 40.8971811,46.3834892 40.5152502,44.3392497 C40.1333193,42.2950102 38.6976103,40.873064 36.88,38.64 C35.0133333,36.3466667 33.12,33.8933333 31.2,31.28 C33.5466667,30 35.5733333,28.1866667 37.28,25.84 C38.9866667,23.4933333 39.84,20.6666667 39.84,17.36 C39.84,12.08 37.9733333,7.89333333 34.24,4.8 C30.5066667,1.70666667 24.96,0.16 17.6,0.16 C14.88,0.16 12.32,0.306666667 9.92,0.6 C7.52,0.893333333 5.41333333,1.36 3.6,2 C2.53333333,2.37333333 1.69333333,2.86666667 1.08,3.48 C0.466666667,4.09333333 0.16,4.96 0.16,6.08 L0.16,43.76 C0.16,45.1466667 0.32,46.2666667 0.64,47.12 C0.96,47.9733333 1.42666667,48.64 2.04,49.12 C2.65333333,49.6 3.42666667,49.9333333 4.36,50.12 C5.29333333,50.3066667 6.37333333,50.4 7.6,50.4 C8.82666667,50.4 10.0666667,50.32 11.32,50.16 C12.5733333,50 13.4933333,49.84 14.08,49.68 L14.08,34.32 L18.32,34.32 L25.04,45.12 C25.52,45.92 26.0266667,46.6666667 26.56,47.36 C27.0933333,48.0533333 27.68,48.64 28.32,49.12 C28.96,49.6 29.7066667,49.9733333 30.56,50.24 M19.12,23.68 L14,23.68 L14,11.68 C14.5866667,11.5733333 15.12,11.4933333 15.6,11.44 C16.08,11.3866667 16.72,11.36 17.52,11.36 C20.3466667,11.36 22.4133333,11.88 23.72,12.92 C25.0266667,13.96 25.68,15.4933333 25.68,17.52 C25.68,19.5466667 25.0933333,21.08 23.92,22.12 C22.7466667,23.16 21.1466667,23.68 19.12,23.68 L19.12,23.68 Z M72.52,51.44 C76.1466667,51.44 79.5066667,50.88 82.6,49.76 C85.6933333,48.64 88.3733333,47 90.64,44.84 C92.9066667,42.68 94.68,39.9866667 95.96,36.76 C97.24,33.5333333 97.88,29.84 97.88,25.68 C97.88,21.52 97.2266667,17.84 95.92,14.64 C94.6133333,11.44 92.8133333,8.76 90.52,6.6 C88.2266667,4.44 85.5466667,2.8 82.48,1.68 C79.4133333,0.56 76.0933333,0 72.52,0 C68.9466667,0 65.6266667,0.56 62.56,1.68 C59.4933333,2.8 56.8266667,4.44 54.56,6.6 C52.2933333,8.76 50.5066667,11.44 49.2,14.64 C47.8933333,17.84 47.24,21.52 47.24,25.68 C47.24,29.7866667 47.88,33.44 49.16,36.64 C50.44,39.84 52.2,42.5333333 54.44,44.72 C56.68,46.9066667 59.3466667,48.5733333 62.44,49.72 C65.5333333,50.8666667 68.8933333,51.44 72.52,51.44 Z M72.52,40.16 C69.2133333,40.16 66.5733333,38.96 64.6,36.56 C62.6266667,34.16 61.64,30.5333333 61.64,25.68 C61.64,20.8266667 62.64,17.2133333 64.64,14.84 C66.64,12.4666667 69.2933333,11.28 72.6,11.28 C75.96,11.28 78.6133333,12.48 80.56,14.88 C82.5066667,17.28 83.48,20.88 83.48,25.68 C83.48,30.5333333 82.4933333,34.16 80.52,36.56 C78.5466667,38.96 75.88,40.16 72.52,40.16 Z M130.16,51.44 C133.786667,51.44 137.146667,50.88 140.24,49.76 C143.333333,48.64 146.013333,47 148.28,44.84 C150.546667,42.68 152.32,39.9866667 153.6,36.76 C154.88,33.5333333 155.52,29.84 155.52,25.68 C155.52,21.52 154.866667,17.84 153.56,14.64 C152.253333,11.44 150.453333,8.76 148.16,6.6 C145.866667,4.44 143.186667,2.8 140.12,1.68 C137.053333,0.56 133.733333,0 130.16,0 C126.586667,0 123.266667,0.56 120.2,1.68 C117.133333,2.8 114.466667,4.44 112.2,6.6 C109.933333,8.76 108.146667,11.44 106.84,14.64 C105.533333,17.84 104.88,21.52 104.88,25.68 C104.88,29.7866667 105.52,33.44 106.8,36.64 C108.08,39.84 109.84,42.5333333 112.08,44.72 C114.32,46.9066667 116.986667,48.5733333 120.08,49.72 C123.173333,50.8666667 126.533333,51.44 130.16,51.44 Z M130.16,40.16 C126.853333,40.16 124.213333,38.96 122.24,36.56 C120.266667,34.16 119.28,30.5333333 119.28,25.68 C119.28,20.8266667 120.28,17.2133333 122.28,14.84 C124.28,12.4666667 126.933333,11.28 130.24,11.28 C133.6,11.28 136.253333,12.48 138.2,14.88 C140.146667,17.28 141.12,20.88 141.12,25.68 C141.12,30.5333333 140.133333,34.16 138.16,36.56 C136.186667,38.96 133.52,40.16 130.16,40.16 Z M212.92,50.64 C214.466667,50.64 215.733333,50.52 216.72,50.28 C217.706667,50.04 218.653333,49.6533333 219.56,49.12 C219.506667,47.84 219.4,46.0133333 219.24,43.64 C219.08,41.2666667 218.88,38.6533333 218.64,35.8 C218.4,32.9466667 218.146667,29.9733333 217.88,26.88 C217.613333,23.7866667 217.346667,20.8533333 217.08,18.08 C216.813333,15.3066667 216.56,12.8133333 216.32,10.6 C216.08,8.38666667 215.853333,6.74666667 215.64,5.68 C215.373333,4.24 214.413333,3.13333333 212.76,2.36 C211.106667,1.58666667 208.973333,1.2 206.36,1.2 C204.813333,1.2 203.413333,1.34666667 202.16,1.64 C200.906667,1.93333333 199.88,2.29333333 199.08,2.72 C198.013333,5.54666667 196.84,9.05333333 195.56,13.24 C194.28,17.4266667 193,21.76 191.72,26.24 L191.72,26.24 L191.32,26.24 C190.893333,24.8533333 190.413333,23.2933333 189.88,21.56 C189.346667,19.8266667 188.8,18.08 188.24,16.32 C187.68,14.56 187.12,12.8533333 186.56,11.2 C186,9.54666667 185.48,8.08 185,6.8 C184.253333,4.82666667 183.08,3.4 181.48,2.52 C179.88,1.64 177.666667,1.2 174.84,1.2 C172.226667,1.2 170.2,1.6 168.76,2.4 C167.32,3.2 166.386667,3.94666667 165.96,4.64 L165.96,4.64 L163.64,45.44 C163.64,47.4133333 164.293333,48.7733333 165.6,49.52 C166.906667,50.2666667 168.733333,50.64 171.08,50.64 C172.2,50.64 173.32,50.5466667 174.44,50.36 C175.56,50.1733333 176.466667,49.9466667 177.16,49.68 C177.32,46.64 177.44,43.8666667 177.52,41.36 C177.6,38.8533333 177.653333,36.3733333 177.68,33.92 C177.706667,31.4666667 177.76,28.9466667 177.84,26.36 C177.92,23.7733333 178.04,20.9066667 178.2,17.76 L178.2,17.76 L178.6,17.76 C179.133333,19.9466667 179.88,22.4933333 180.84,25.4 C181.8,28.3066667 183.026667,32.1066667 184.52,36.8 C184.893333,37.9733333 185.706667,38.8 186.96,39.28 C188.213333,39.76 189.8,40 191.72,40 C193.16,40 194.426667,39.8266667 195.52,39.48 C196.613333,39.1333333 197.506667,38.6666667 198.2,38.08 C199.64,33.1733333 200.866667,29.1466667 201.88,26 C202.893333,22.8533333 203.666667,20.24 204.2,18.16 L204.2,18.16 L204.6,18.16 C204.76,21.3066667 204.88,25.2 204.96,29.84 C205.04,34.48 205.24,39.7066667 205.56,45.52 C205.666667,47.5466667 206.413333,48.9066667 207.8,49.6 C209.186667,50.2933333 210.893333,50.64 212.92,50.64 Z M258.72,50.24 C260.213333,50.24 261.413333,49.8 262.32,48.92 C263.226667,48.04 263.68,46.5333333 263.68,44.4 C263.68,43.3333333 263.52,42.3066667 263.2,41.32 C262.88,40.3333333 262.533333,39.5466667 262.16,38.96 L262.16,38.96 L243.84,38.96 L243.84,7.36 C243.84,5.97333333 243.68,4.85333333 243.36,4 C243.04,3.14666667 242.56,2.48 241.92,2 C241.28,1.52 240.493333,1.18666667 239.56,1 C238.626667,0.813333333 237.546667,0.72 236.32,0.72 C235.146667,0.72 233.92,0.813333333 232.64,1 C231.36,1.18666667 230.426667,1.33333333 229.84,1.44 L229.84,1.44 L229.84,42.8 C229.84,45.0933333 230.506667,46.9066667 231.84,48.24 C233.173333,49.5733333 234.986667,50.24 237.28,50.24 L237.28,50.24 L258.72,50.24 Z M286.04,50.4 C287.213333,50.4 288.413333,50.32 289.64,50.16 C290.866667,50 291.773333,49.84 292.36,49.68 L292.36,49.68 L292.36,33.44 C295.506667,28.3733333 298,24.2666667 299.84,21.12 C301.68,17.9733333 303.08,15.48 304.04,13.64 C305,11.8 305.613333,10.4266667 305.88,9.52 C306.146667,8.61333333 306.28,7.84 306.28,7.2 C306.28,5.22666667 305.626667,3.74666667 304.32,2.76 C303.013333,1.77333333 301.426667,1.28 299.56,1.28 C298.493333,1.28 297.373333,1.41333333 296.2,1.68 C295.026667,1.94666667 293.96,2.32 293,2.8 C292.253333,4.72 291.586667,6.41333333 291,7.88 C290.413333,9.34666667 289.853333,10.76 289.32,12.12 C288.786667,13.48 288.24,14.84 287.68,16.2 C287.12,17.56 286.466667,19.0666667 285.72,20.72 L285.72,20.72 L285.24,20.72 L278.6,7.36 C277.426667,5.01333333 276.186667,3.41333333 274.88,2.56 C273.573333,1.70666667 271.88,1.28 269.8,1.28 C268.04,1.28 266.56,1.68 265.36,2.48 C264.16,3.28 263.213333,4.16 262.52,5.12 C263.32,7.14666667 264.36,9.37333333 265.64,11.8 C266.92,14.2266667 268.306667,16.6933333 269.8,19.2 C271.293333,21.7066667 272.813333,24.16 274.36,26.56 C275.906667,28.96 277.346667,31.1466667 278.68,33.12 L278.68,33.12 L278.68,43.92 C278.68,46.5866667 279.293333,48.3333333 280.52,49.16 C281.746667,49.9866667 283.586667,50.4 286.04,50.4 Z" id="path-2"></path>
        <filter x="-2.3%" y="-9.7%" width="104.6%" height="127.2%" filterUnits="objectBoundingBox" id="filter-3">
            <feOffset dx="0" dy="2" in="SourceAlpha" result="shadowOffsetOuter1"></feOffset>
            <feGaussianBlur stdDeviation="2" in="shadowOffsetOuter1" result="shadowBlurOuter1"></feGaussianBlur>
            <feColorMatrix values="0 0 0 0 0   0 0 0 0 0   0 0 0 0 0  0 0 0 0.626971051 0" type="matrix" in="shadowBlurOuter1"></feColorMatrix>
        </filter>
    </defs>
    <g id="Page-1" stroke="none" stroke-width="1" fill="none" fill-rule="evenodd">
        <g filter="url(#filter-1)" id="Group" opacity="0.96320452">
            <g transform="translate(23.368128, 1.440000)">
                <path d="M7.25212152,29.5691863 C15.3800318,41.6430621 21.4552074,39.7897288 25.4776483,24.0091863 C43.9003602,-12.4342135 40.8223975,60.565715 4.95187232,47.68 C-2.34446064,37.3529308 -1.57771091,31.3159929 7.25212152,29.5691863 Z" id="Path-2" fill="white"></path>
                <path d="M57.3931949,4.72186522 C56.9390305,8.59851787 61.6110697,10.5368442 71.4093126,10.5368442 C86.106677,10.5368442 87.6327664,-2.29416041 103.010284,0.411674867 C118.387801,3.11751014 84.9896111,25.5140472 64.8629084,22.24 C56.7047688,20.978806 54.2148643,15.1394277 57.3931949,4.72186522 Z" id="Path-3" fill="#A5A5A5"></path>
                <path d="M112.029979,4.92748145 C117.887898,11.1219907 123.82853,18.8201898 129.851872,28.0220785 C132.370352,33.5640718 137.876098,38.2261984 145.016787,39.8639553 C152.330351,39.9459328 158.377784,49.200092 147.711872,49.200092 C130.510262,49.200092 125.466187,42.233491 116.469533,29.3467926 C113.085399,21.8167808 111.605547,13.6770104 112.029979,4.92748145 Z" id="Path-3" fill="#A5A5A5"></path>
                <path d="M191.133098,49.2 C199.297554,47.8239519 204.77264,41.9457171 207.558356,31.5652956 C210.344072,21.1848742 209.981911,10.6631089 206.471872,0 C203.537269,25.0639113 198.601167,37.767355 191.663566,38.1103312 C187.443369,41.2307066 187.266546,44.9272629 191.133098,49.2 Z" id="Path-4" fill="#A5A5A5"></path>
                <path d="M235.927593,48.8 C249.195022,46.1147914 254.592705,37.5323246 252.120643,23.0525996 C249.648581,8.5728745 245.325658,2.11534131 239.151872,3.68 C245.742619,26.7688641 244.667859,38.1426314 235.927593,37.8013018 C231.010809,38.5329106 231.010809,42.1991433 235.927593,48.8 Z" id="Path-4" fill="#A5A5A5"></path>
            </g>
        </g>
        <g id="ROOMLY" fill-rule="nonzero">
            <use fill="black" fill-opacity="1" filter="url(#filter-3)" xlink:href="#path-2"></use>
            <use fill="#FFF" xlink:href="#path-2"></use>
        </g>
    </g>
</svg>
